<?xml version="1.0" encoding="UTF-8"?>
<svg width="400px" height="400px" viewBox="0 0 400 400" version="1.1" xmlns="http://www.w3.org/2000/svg" xmlns:xlink="http://www.w3.org/1999/xlink">
    <title>Group</title>
    <defs>
        <circle id="path-1" cx="200" cy="200" r="200"></circle>
    </defs>
    <g id="Page-1" stroke="none" stroke-width="1" fill="none" fill-rule="evenodd">
        <g id="재형-copy-6" transform="translate(-25.000000, -25.000000)">
            <g id="Group" transform="translate(25.000000, 25.000000)">
                <mask id="mask-2" fill="white">
                    <use xlink:href="#path-1"></use>
                </mask>
                <use id="Mask" fill="#D8D8D8" xlink:href="#path-1"></use>
                <g mask="url(#mask-2)">
                    <g transform="translate(-24.000000, -25.000000)">
                        <rect id="Rectangle" stroke="none" fill="#B0C7DE" fill-rule="evenodd" x="0" y="0" width="449" height="449"></rect>
                        <rect id="Rectangle" stroke="none" fill="#FFD0C6" fill-rule="evenodd" x="180" y="270" width="92" height="59"></rect>
                        <path d="M338.700888,356.390772 C329.422613,341.100706 315.743889,329.986996 300.032374,324.972978 L258,313 L258,283.120077 C273.426488,269.918687 289.098138,249.471864 289.720653,225.972514 C291.876724,227.055199 294.256621,227.668754 296.765917,227.668754 C306.422773,227.668754 314.252301,218.750296 314.252301,207.748141 C314.252301,196.745987 306.422773,187.827529 296.765917,187.827529 C294.27673,187.827529 291.91432,188.428135 289.771364,189.49588 L289.771364,183.843406 C289.771364,142.585826 260.4126,109.141109 224.197425,109.141109 C187.981376,109.141109 158.623487,142.585826 158.623487,183.843406 L158.623487,189.49588 C156.479656,188.428135 154.117246,187.827529 151.628933,187.827529 C141.971203,187.827529 134.14255,196.745987 134.14255,207.748141 C134.14255,218.750296 141.971203,227.668754 151.628933,227.668754 C154.137355,227.668754 156.517252,227.056195 158.674197,225.972514 C159.295838,249.471864 176.574387,269.79861 192,283 L192,312.879923 L148.361602,324.972978 C132.650087,329.986996 118.971363,341.100706 109.693088,356.390772 L84.3063562,398.229038 L84.3063562,427.87091 L364.088494,427.87091 L364.088494,398.229038 L338.700888,356.390772 Z" id="Fill-1" stroke="none" fill="#FFD0C6" fill-rule="evenodd"></path>
                        <path d="M226,294.686523 C216.981371,295.464167 190,282.688477 180,272.688477 C189,284.688477 211.251341,304.950627 224.5,305.862305 C235.30015,306.605494 262.556354,303.779944 272,299.5 L272,270 C263.481934,279.687988 245.774432,292.981445 226,294.686523 Z" id="Fill-4" stroke="none" fill="#DB8B79" fill-rule="evenodd"></path>
                        <circle id="Oval" stroke="none" fill="#D7D7D7" fill-rule="evenodd" cx="192.5" cy="362.5" r="2.5"></circle>
                        <circle id="Oval-Copy" stroke="none" fill="#D7D7D7" fill-rule="evenodd" cx="257.5" cy="362.5" r="2.5"></circle>
                        <circle id="Oval-Copy-2" stroke="none" fill="#D7D7D7" fill-rule="evenodd" cx="220.5" cy="367.5" r="2.5"></circle>
                        <circle id="Oval-Copy-3" stroke="none" fill="#D7D7D7" fill-rule="evenodd" cx="220.5" cy="394.5" r="2.5"></circle>
                        <circle id="Oval-Copy-4" stroke="none" fill="#D7D7D7" fill-rule="evenodd" cx="220.5" cy="421.5" r="2.5"></circle>
                        <path d="M158.6086,210.9185 C158.8636,209.9895 159.0006,209.0105 159.0006,208.0005 C159.0006,201.9255 154.0756,197.0005 148.0006,197.0005 C146.4816,197.0005 145.0346,197.3085 143.7186,197.8645" id="Stroke-6" stroke="#242424" stroke-width="2" fill="none" stroke-linecap="round" stroke-linejoin="round"></path>
                        <path d="M290.3913,210.9185 C290.1363,209.9895 290.0003,209.0105 290.0003,208.0005 C290.0003,201.9255 294.9253,197.0005 301.0003,197.0005 C302.5183,197.0005 303.9653,197.3085 305.2823,197.8645" id="Stroke-8" stroke="#242424" stroke-width="2" fill="none" stroke-linecap="round" stroke-linejoin="round"></path>
                        <path d="M283.339844,182 L289.681885,192.247 C292.788885,190.261 296.332945,190.145508 300.293945,190.145508 C300.711363,190.145508 305.31613,191.312959 307.632812,193.346191 C309.067957,194.605743 310.0984,196.109902 310.350098,196.134766 L310.350098,181.179199 C310.350098,164.874199 302.890641,146.644078 294.931641,133.705078 C287.554641,121.715078 284.19,117.217109 272,110.141109 C259.471,102.868109 244.704049,98.203125 229.175049,98.203125 C213.646049,98.203125 198.003609,102.868109 185.474609,110.141109 C173.285609,117.217109 167.936,125.539 160.559,137.529 C152.6,150.468 148,165.694 148,182 L148,189.195 C148.658,189.13 149.324,189.094 150,189.094 C153.961,189.094 157.643,190.26 160.75,192.247 L160.75,181.851 C173.61,178.671 186.425859,176.484437 199.880859,175.023437 C209.697266,172.746094 215.478516,169.436198 217.224609,165.09375 C218.970703,160.751302 225.095052,150.288411 235.597656,133.705078 C254.464844,165.93272 265.579427,182.031027 268.941406,182 C285.487406,182 290.286885,182 283.339844,182 Z" id="short-11" stroke="none" fill="#242424" fill-rule="evenodd"></path>
                        <path d="M235.597656,133.705078 L217.378906,171.083984 C229.061198,161.874026 237.126302,149.414391 241.574219,133.705078" id="Path-15" stroke="none" fill="#242424" fill-rule="evenodd"></path>
                        <path d="M199,200.5 C199,203.538062 196.537375,206 193.5,206 C190.462625,206 188,203.538062 188,200.5 C188,197.462625 190.462625,195 193.5,195 C196.537375,195 199,197.462625 199,200.5" id="eye-left-copy" stroke="none" fill="#2A1001" fill-rule="evenodd"></path>
                        <path d="M263,200.5 C263,203.538062 260.537375,206 257.5,206 C254.462625,206 252,203.538062 252,200.5 C252,197.462625 254.462625,195 257.5,195 C260.537375,195 263,197.462625 263,200.5" id="eye-left-copy-2" stroke="none" fill="#2A1001" fill-rule="evenodd"></path>
                        <path d="M385,399.24 L355.963,357.235 C345.352,341.885 329.707,330.726 311.736,325.692 L270,314 C270,338.853 249.853,359 225,359 C200.147,359 180,338.853 180,314 L138.263,325.692 C120.293,330.726 104.648,341.885 94.036,357.235 L65,399.24 L65,429 L385,429 L385,399.24 Z" id="t-shirt" stroke="none" fill="#FFFFFF" fill-rule="evenodd"></path>
                        <path d="M180,300 L176,300 L164.944,318.2174 C130.048214,325.919654 106.412214,338.925521 94.036,357.235 C81.6597865,375.544479 71.9811198,389.545812 65,399.239 L65,429 L177.668945,429 L177.668945,348.080078 L180,307.49 L180,300 Z" id="Path-16" stroke="none" fill="#15114A" fill-rule="evenodd"></path>
                        <path d="M386.0005,300 L382.0005,300 L370.9445,318.2174 C336.048714,325.919654 312.412714,338.925521 300.0365,357.235 C287.660286,375.544479 277.98162,389.545812 271.0005,399.239 L271.0005,429 L383.669445,429 L383.669445,348.080078 L386.0005,307.49 L386.0005,300 Z" id="Path-16" stroke="none" fill="#15114A" fill-rule="evenodd" transform="translate(328.500500, 364.500000) scale(-1, 1) translate(-328.500500, -364.500000) "></path>
                        <path d="M227.939362,202 L236.484093,221.170613 C237.833141,224.197283 236.47316,227.744504 233.44649,229.093552 C232.677733,229.436203 231.845485,229.613281 231.003822,229.613281 L219,229.613281 L219,229.613281" id="Stroke-1" stroke="#683F01" stroke-width="2" fill="none" stroke-linecap="round" stroke-linejoin="round"></path>
                        <path d="M246,237 C246,248.046 237.046,257 226,257 C214.954,257 206,248.046 206,237 L246,237 Z" id="default" stroke="none" fill="#B96969" fill-rule="evenodd"></path>
                        <path d="M259,221.5595 C247.750637,221.5595 238.600189,212.409051 238.600189,201.159689 C238.600189,187.080419 252.866457,185.5595 259,185.5595 C265.133543,185.5595 279.399811,187.080419 279.399811,201.159689 C279.399811,212.409051 270.249363,221.5595 259,221.5595 M193,221.5595 C181.750637,221.5595 172.600189,212.409051 172.600189,201.159689 C172.600189,187.080419 186.866457,185.5595 193,185.5595 C199.133543,185.5595 213.399811,187.080419 213.399811,201.159689 C213.399811,212.409051 204.249363,221.5595 193,221.5595 M279.105,190.303 L273.708,186.106 C271.953,184.741 269.793,184 267.569,184 L250.144,184 C247.773,184 245.48,184.841 243.673,186.376 L236,192.887 L227.898926,189.548828 C227.317926,189.245828 224.576605,189.245828 223.995605,189.548828 L216,192.887 L208.327,186.376 C206.52,184.841 204.227,184 201.856,184 L184.431,184 C182.207,184 180.047,184.741 178.292,186.106 L172.895,190.303 L165,190.303 C163.896,190.303 163,191.199 163,192.303 C163,193.408 163.896,194.303 165,194.303 L167,194.303 C168.657,194.303 170,197.482 170,199.139 L170,200.115 C170,212.275 179.265,222.678 191.396,223.505 C201.969,224.226 211.167,217.755 214.583,208.507 L218.047,198.135 C219.409,194.951 222.537,192.887 226,192.887 C229.463,192.887 232.591,194.951 233.953,198.135 L237.416,208.509 C240.833,217.756 250.032,224.226 260.604,223.505 C272.735,222.677 282,212.275 282,200.115 L282,199.139 C282,197.482 283.343,194.303 285,194.303 L287,194.303 C288.104,194.303 289,193.408 289,192.303 C289,191.199 288.104,190.303 287,190.303 L279.105,190.303 Z" id="재형님-안경-copy" stroke="none" fill="#383838" fill-rule="evenodd"></path>
                    </g>
                </g>
            </g>
        </g>
    </g>
</svg>